<svg width="148" height="32" viewBox="0 0 148 32" fill="none" xmlns="http://www.w3.org/2000/svg">
<path d="M11.4568 0.0267206C13.5721 -0.275245 15.813 2.01614 16.4583 5.1779C17.1037 8.3219 15.9384 11.1284 13.8231 11.4481C11.7257 11.7679 9.46692 9.47647 8.80363 6.31471C8.14035 3.17072 9.34143 0.364212 11.4568 0.0267206ZM24.2743 0.0267206C26.4076 0.364212 27.5908 3.17072 26.9633 6.31471C26.2821 9.47647 24.0413 11.7679 21.9259 11.4481C19.7927 11.1284 18.6274 8.3219 19.2907 5.1779C19.9361 2.01614 22.1769 -0.275245 24.2743 0.0267206ZM1.86602 8.19756C3.90966 7.32719 6.68829 8.90807 8.14035 11.6613C9.50277 14.4678 9.03668 17.4164 7.01097 18.2868C4.98526 19.1571 2.22456 17.594 0.808352 14.8053C-0.607853 12.0165 -0.105907 9.05017 1.86602 8.19756ZM34.134 8.19756C36.1059 9.05017 36.6079 12.0165 35.1916 14.8053C33.7754 17.594 31.0147 19.1571 28.989 18.2868C26.9633 17.4164 26.4972 14.4678 27.8597 11.6613C29.3117 8.90807 32.0903 7.32719 34.134 8.19756ZM31.1402 27.3457C31.2119 29.0154 29.9212 30.8628 28.3795 31.5555C25.1707 33.012 21.3702 29.9924 17.8028 29.9924C14.2354 29.9924 10.3991 33.1364 7.24402 31.5555C5.45135 30.6851 4.21441 28.376 4.44746 26.4576C4.77014 23.811 7.97901 22.39 9.87923 20.4538C12.4069 17.9493 14.1996 13.2422 17.8028 13.2422C21.3881 13.2422 23.2884 17.8782 25.7085 20.4538C27.6983 22.6209 31.0147 24.4504 31.1402 27.3457Z" fill="#4A90E2"/>
<path d="M50 25.6538V8.34615H57.5363C59.0435 8.34615 60.3388 8.60165 61.4222 9.11264C62.5212 9.62363 63.369 10.3654 63.9656 11.3379C64.5623 12.294 64.8606 13.4313 64.8606 14.75C64.8606 16.0522 64.5623 17.1813 63.9656 18.1374C63.369 19.0934 62.5212 19.8352 61.4222 20.3626C60.3388 20.8736 59.0435 21.1291 57.5363 21.1291H52.5906L54.6631 19.0027V25.6538H50ZM54.6631 19.522L52.5906 17.272H57.2537C58.2271 17.272 58.9493 17.0495 59.4203 16.6044C59.9071 16.1593 60.1504 15.5412 60.1504 14.75C60.1504 13.9423 59.9071 13.3159 59.4203 12.8709C58.9493 12.4258 58.2271 12.2033 57.2537 12.2033H52.5906L54.6631 9.9533V19.522Z" fill="#333333"/>
<path d="M73.5876 25.8764C72.0804 25.8764 70.7615 25.5797 69.6311 24.9863C68.5164 24.3764 67.645 23.5522 67.017 22.5137C66.4046 21.4588 66.0985 20.2637 66.0985 18.9286C66.0985 17.5934 66.3968 16.4066 66.9934 15.3681C67.6057 14.3132 68.4457 13.4973 69.5133 12.9203C70.581 12.3269 71.7821 12.0302 73.1166 12.0302C74.3727 12.0302 75.5188 12.3022 76.555 12.8462C77.5913 13.3736 78.4156 14.1566 79.0279 15.1951C79.6402 16.2335 79.9464 17.4945 79.9464 18.978C79.9464 19.1429 79.9385 19.3324 79.9228 19.5467C79.9071 19.761 79.8914 19.9588 79.8757 20.1401H69.7724V17.6676H77.4971L75.8014 18.3599C75.8171 17.75 75.7072 17.2225 75.4717 16.7775C75.2519 16.3324 74.9379 15.9863 74.5297 15.739C74.1372 15.4918 73.674 15.3681 73.1402 15.3681C72.6064 15.3681 72.1353 15.4918 71.7271 15.739C71.3346 15.9863 71.0284 16.3407 70.8086 16.8022C70.5888 17.2473 70.4789 17.7747 70.4789 18.3846V19.1016C70.4789 19.761 70.6045 20.3297 70.8557 20.8077C71.1226 21.2857 71.4995 21.6566 71.9862 21.9203C72.4729 22.1676 73.0538 22.2912 73.7289 22.2912C74.357 22.2912 74.8908 22.2005 75.3304 22.0192C75.7857 21.8214 76.2332 21.5247 76.6728 21.1291L79.0279 23.7005C78.4156 24.4093 77.6619 24.9533 76.767 25.3324C75.8721 25.6951 74.8123 25.8764 73.5876 25.8764Z" fill="#333333"/>
<path d="M87.7088 25.8764C86.0759 25.8764 84.8042 25.456 83.8935 24.6154C82.9829 23.7582 82.5276 22.4725 82.5276 20.7582V9.26099H87.0022V20.7088C87.0022 21.1868 87.1278 21.5659 87.379 21.8462C87.6302 22.1099 87.9521 22.2418 88.3446 22.2418C88.8784 22.2418 89.3338 22.1016 89.7106 21.8214L90.8175 25.1099C90.4407 25.3736 89.9775 25.5632 89.428 25.6786C88.8784 25.8104 88.3054 25.8764 87.7088 25.8764ZM80.6671 16.2582V12.7473H89.9225V16.2582H80.6671Z" fill="#333333"/>
<path d="M100.974 26C99.671 26 98.462 25.7857 97.3473 25.3571C96.2483 24.9121 95.2905 24.2857 94.4741 23.478C93.6734 22.6703 93.0453 21.7225 92.59 20.6346C92.1347 19.5302 91.9071 18.3187 91.9071 17C91.9071 15.6813 92.1347 14.478 92.59 13.3901C93.0453 12.2857 93.6734 11.3297 94.4741 10.522C95.2905 9.71429 96.2483 9.09615 97.3473 8.66758C98.462 8.22253 99.671 8 100.974 8C102.497 8 103.855 8.28022 105.048 8.84066C106.257 9.4011 107.262 10.2088 108.063 11.2637L105.096 14.0824C104.562 13.4231 103.973 12.9203 103.329 12.5742C102.701 12.228 101.995 12.0549 101.21 12.0549C100.535 12.0549 99.9143 12.1703 99.3491 12.4011C98.7839 12.6319 98.2972 12.9698 97.889 13.4148C97.4965 13.8434 97.1824 14.3626 96.9469 14.9725C96.7271 15.5824 96.6172 16.2582 96.6172 17C96.6172 17.7418 96.7271 18.4176 96.9469 19.0275C97.1824 19.6374 97.4965 20.1648 97.889 20.6099C98.2972 21.0385 98.7839 21.3681 99.3491 21.5989C99.9143 21.8297 100.535 21.9451 101.21 21.9451C101.995 21.9451 102.701 21.772 103.329 21.4258C103.973 21.0797 104.562 20.5769 105.096 19.9176L108.063 22.7363C107.262 23.7747 106.257 24.5824 105.048 25.1593C103.855 25.7198 102.497 26 100.974 26Z" fill="#333333"/>
<path d="M117.679 25.6538V23.1566L117.373 22.5385V17.9396C117.373 17.1978 117.153 16.6291 116.714 16.2335C116.29 15.8214 115.607 15.6154 114.665 15.6154C114.053 15.6154 113.432 15.7225 112.804 15.9368C112.176 16.1346 111.643 16.4148 111.203 16.7775L109.696 13.5879C110.418 13.0934 111.281 12.7143 112.286 12.4505C113.307 12.1703 114.319 12.0302 115.324 12.0302C117.397 12.0302 118.998 12.533 120.129 13.5385C121.275 14.5275 121.848 16.0852 121.848 18.2115V25.6538H117.679ZM113.911 25.8764C112.891 25.8764 112.027 25.6951 111.321 25.3324C110.614 24.9698 110.072 24.4753 109.696 23.8489C109.335 23.2225 109.154 22.522 109.154 21.7473C109.154 20.9231 109.35 20.2143 109.743 19.6209C110.151 19.011 110.771 18.5495 111.603 18.2363C112.435 17.9066 113.511 17.7418 114.83 17.7418H117.844V20.1896H115.442C114.72 20.1896 114.21 20.3132 113.911 20.5604C113.629 20.8077 113.487 21.1374 113.487 21.5495C113.487 21.9615 113.637 22.2912 113.935 22.5385C114.233 22.7857 114.641 22.9093 115.159 22.9093C115.646 22.9093 116.086 22.7857 116.478 22.5385C116.887 22.2747 117.185 21.8791 117.373 21.3516L117.986 23.0824C117.75 24.0055 117.287 24.706 116.596 25.1841C115.921 25.6456 115.026 25.8764 113.911 25.8764Z" fill="#333333"/>
<path d="M124.672 25.6538V12.2527H128.935V16.1593L128.299 15.0467C128.676 14.0412 129.288 13.2912 130.136 12.7967C130.984 12.2857 132.012 12.0302 133.221 12.0302V16.2582C133.017 16.2253 132.837 16.2088 132.68 16.2088C132.538 16.1923 132.381 16.1841 132.209 16.1841C131.298 16.1841 130.56 16.4478 129.995 16.9753C129.43 17.4863 129.147 18.3269 129.147 19.4973V25.6538H124.672Z" fill="#333333"/>
<path d="M141.641 25.8764C140.134 25.8764 138.815 25.5797 137.685 24.9863C136.57 24.3764 135.699 23.5522 135.071 22.5137C134.458 21.4588 134.152 20.2637 134.152 18.9286C134.152 17.5934 134.45 16.4066 135.047 15.3681C135.659 14.3132 136.499 13.4973 137.567 12.9203C138.635 12.3269 139.836 12.0302 141.17 12.0302C142.426 12.0302 143.572 12.3022 144.609 12.8462C145.645 13.3736 146.469 14.1566 147.082 15.1951C147.694 16.2335 148 17.4945 148 18.978C148 19.1429 147.992 19.3324 147.976 19.5467C147.961 19.761 147.945 19.9588 147.929 20.1401H137.826V17.6676H145.551L143.855 18.3599C143.871 17.75 143.761 17.2225 143.525 16.7775C143.306 16.3324 142.992 15.9863 142.583 15.739C142.191 15.4918 141.728 15.3681 141.194 15.3681C140.66 15.3681 140.189 15.4918 139.781 15.739C139.388 15.9863 139.082 16.3407 138.862 16.8022C138.642 17.2473 138.533 17.7747 138.533 18.3846V19.1016C138.533 19.761 138.658 20.3297 138.909 20.8077C139.176 21.2857 139.553 21.6566 140.04 21.9203C140.527 22.1676 141.107 22.2912 141.783 22.2912C142.411 22.2912 142.944 22.2005 143.384 22.0192C143.839 21.8214 144.287 21.5247 144.726 21.1291L147.082 23.7005C146.469 24.4093 145.716 24.9533 144.821 25.3324C143.926 25.6951 142.866 25.8764 141.641 25.8764Z" fill="#333333"/>
</svg>
